# xmcd CD database file
#
# Track frame offsets:
#	150
#	20414
#	40860
#	59552
#	73862
#	88887
#	107738
#	137938
#	158717
#	184100
#	215010
#
# Disc length: 3150 seconds
#
# Revision: 0
# Processed by: cddbd v1.5.2PL0 Copyright (c) Steve Scherf et al.
# Submitted via: CDex 1.70beta2
#
DISCID=a40c4c0b
DTITLE=Jane Monheit - Come Dream With Me
DYEAR=1900
DGENRE=Jazz
TTITLE0=A Case Of You
TTITLE1=Blame It On My Youth
TTITLE2=Hit The Road To Dreamland
TTITLE3=I'll Be Seeing You
TTITLE4=I'm Through with Love
TTITLE5=If
TTITLE6=Over The Rainbow
TTITLE7=So Many Stars
TTITLE8=Something To Live For
TTITLE9=Spring Can Really Hang You Up the Most
TTITLE10=Waters  Of March
EXTD=
EXTT0=
EXTT1=
EXTT2=
EXTT3=
EXTT4=
EXTT5=
EXTT6=
EXTT7=
EXTT8=
EXTT9=
EXTT10=
PLAYORDER=
